<?xml version="1.0" encoding="utf-8"?>
<svg xmlns="http://www.w3.org/2000/svg">
<symbol id="account" viewBox="0 0 512 512.00019"><path d="m256 511.996094c-141.484375 0-256-114.65625-256-255.996094 0-141.488281 114.496094-256 256-256 141.488281 0 255.996094 114.496094 255.996094 256 0 141.476562-114.667969 255.996094-255.996094 255.996094zm0 0" fill="#66a9df"/><path d="m256 0v511.996094c141.328125 0 255.996094-114.519532 255.996094-255.996094 0-141.5-114.507813-256-255.996094-256zm0 0" fill="#4f84cf"/><path d="m256 316c-74.488281 0-145.511719 32.5625-197.417969 102.96875 103.363281 124.941406 294.6875 123.875 396.65625-2.230469-25.179687-25.046875-81.894531-100.738281-199.238281-100.738281zm0 0" fill="#d6f3fe"/><path d="m455.238281 416.738281c-48.140625 59.527344-120.371093 95.257813-199.238281 95.257813v-195.996094c117.347656 0 174.058594 75.699219 199.238281 100.738281zm0 0" fill="#bdecfc"/><path d="m256 271c-49.628906 0-90-40.375-90-90v-30c0-49.625 40.371094-90 90-90 49.625 0 90 40.375 90 90v30c0 49.625-40.375 90-90 90zm0 0" fill="#d6f3fe"/><path d="m256 61v210c49.628906 0 90-40.371094 90-90v-30c0-49.628906-40.371094-90-90-90zm0 0" fill="#bdecfc"/>
</symbol>
<symbol id="dislike" viewBox="0 0 58 58"><g id="Page-1" fill="none" fill-rule="evenodd"><g id="011---dislike" fill-rule="nonzero"><path id="Shape" d="m58 6v34c0 3.3137085-2.6862915 6-6 6h-12c-.6295146 0-1.2222912.2963883-1.6.8l-7.86 10.48c-.3813276.4562785-.9453566.7199689-1.54.7199689s-1.1586724-.2636904-1.54-.7199689l-7.86-10.48c-.3777088-.5036117-.9704854-.8-1.6-.8h-12c-3.3137085 0-6-2.6862915-6-6v-34c0-3.3137085 2.6862915-6 6-6h46c3.3137085 0 6 2.6862915 6 6z" fill="#f3d55b"/><path id="Shape" d="m49 17.59c0 8.24-7.33 13.84-18.21 23.77l-2.53-11.41 6.8-4.25c.5898949-.3688335.9457366-1.0177141.9396162-1.7133984s-.3733234-1.3382037-.9696162-1.6966016l-8.41-5.05 2.38-4.58s3.07-6.66 10-6.66c5.92 0 10 5.3 10 11.59z" fill="#df4d60"/><path id="Shape" d="m24.05 29.43 2.52 11.34c-10.53-9.56-17.57-15.11-17.57-23.18 0-6.29 4.08-11.59 10-11.59 2.7191313.01245607 5.3252417 1.0893612 7.26 3l-4.05 8.11c-.4713481.9315333-.138861 2.0689894.76 2.6l7.2 4.32-5.23 3.27c-.7195155.4484271-1.0765782 1.3029704-.89 2.13z" fill="#ff5364"/></g></g>
</symbol>
<symbol id="instagram" viewBox="0 0 512 512"><g><path d="m450.725 190.92c-.14-4.9-.33-9.59-.59-15.39-.91-20.73-4.26-34.98-9.06-47.33-4.96-13.11-12.58-24.84-22.56-34.6-9.75-9.91-21.56-17.61-34.52-22.48-5.55-2.14-11.45-4-18.13-5.48-8.26-1.83-17.72-3.09-29.19-3.59-20.88-.99-27.51-1.22-80.46-1.22-52.96 0-59.59.23-80.39 1.14-20.73.92-34.98 4.27-47.32 9.07-13.11 4.95-24.84 12.58-34.6 22.56-9.9 9.76-17.6 21.57-22.48 34.53-4.8 12.42-8.15 26.6-9.06 47.33-.27 5.82-.49 10.54-.66 15.46-.44 12.72-.56 26.82-.56 65.02 0 38.21.12 52.31.53 65.01.16 4.9.36 9.6.61 15.4.91 20.73 4.27 34.98 9.07 47.33 4.95 13.11 12.65 24.85 22.55 34.6 9.76 9.91 21.57 17.61 34.52 22.49 12.42 4.8 26.59 8.15 47.32 9.07 20.8.91 27.43 1.14 80.39 1.14s59.59-.23 80.39-1.14c11.33-.5 20.72-1.73 28.93-3.53 6.8-1.48 12.79-3.36 18.39-5.54 26.21-10.14 46.94-30.87 57.07-57.09 4.8-12.42 8.16-26.6 9.07-47.33.25-5.8.45-10.5.61-15.4.41-12.7.53-26.8.53-65.01 0-38.22-.04-52.32-.4-65.02z" fill="#ff6b81"/><path d="m451.125 255.94c0 38.21-.12 52.31-.53 65.01-.16 4.9-.36 9.6-.61 15.4-.91 20.73-4.27 34.91-9.07 47.33-10.13 26.22-30.86 46.95-57.07 57.09-5.6 2.18-11.59 4.06-18.39 5.54 25.22-11.06 45.08-31.76 55.06-57.58 4.99-12.91 8.48-27.65 9.43-49.2.95-21.63 1.18-28.52 1.18-83.59 0-55.06-.08-61.95-1.03-83.58-.95-21.55-4.43-36.37-9.42-49.21-5.15-13.62-13.07-25.82-23.45-35.97-8.99-9.13-19.67-16.46-31.36-21.54 6.68 1.48 12.58 3.34 18.13 5.48 12.96 4.87 24.77 12.57 34.52 22.48 9.98 9.76 17.6 21.49 22.56 34.6 4.8 12.35 8.15 26.6 9.06 47.33.26 5.8.45 10.49.59 15.39.36 12.7.4 26.8.4 65.02z" fill="#ed2061"/><path d="m450.725 190.92h-389.02c.17-4.92.39-9.64.66-15.46.91-20.73 4.26-34.91 9.06-47.33 4.88-12.96 12.58-24.77 22.48-34.53 9.76-9.98 21.49-17.61 34.6-22.56 12.34-4.8 26.59-8.15 47.32-9.07 20.8-.91 27.43-1.14 80.39-1.14 52.95 0 59.58.23 80.46 1.22 11.47.5 20.93 1.76 29.19 3.59 6.68 1.48 12.58 3.34 18.13 5.48 12.96 4.87 24.77 12.57 34.52 22.48 9.98 9.76 17.6 21.49 22.56 34.6 4.8 12.35 8.15 26.6 9.06 47.33.26 5.8.45 10.49.59 15.39z" fill="#9090fb"/><path d="m450.595 320.95c-.16 4.9-.36 9.6-.61 15.4-.91 20.73-4.27 34.91-9.07 47.33-10.13 26.22-30.86 46.95-57.07 57.09-5.6 2.18-11.59 4.06-18.39 5.54-8.21 1.8-17.6 3.03-28.93 3.53-20.8.91-27.43 1.14-80.39 1.14s-59.59-.23-80.39-1.14c-20.73-.92-34.9-4.27-47.32-9.07-12.95-4.88-24.76-12.58-34.52-22.49-9.9-9.75-17.6-21.49-22.55-34.6-4.8-12.35-8.16-26.6-9.07-47.33-.25-5.8-.45-10.5-.61-15.4z" fill="#fbdf63"/><path d="m430.655 320.95h19.94c-.16 4.9-.36 9.6-.61 15.4-.91 20.73-4.27 34.91-9.07 47.33-10.13 26.22-30.86 46.95-57.07 57.09-5.6 2.18-11.59 4.06-18.39 5.54 25.22-11.06 45.08-31.76 55.06-57.58 4.99-12.91 8.48-27.65 9.43-49.2.31-7.03.54-12.5.71-18.58z" fill="#ffa402"/><path d="m397.225 87.18c-8.99-9.13-19.67-16.46-31.36-21.54 6.68 1.48 12.58 3.34 18.13 5.48 12.96 4.87 24.77 12.57 34.52 22.48 9.98 9.76 17.6 21.49 22.56 34.6 4.8 12.35 8.15 26.6 9.06 47.33.26 5.8.45 10.49.59 15.39h-19.95c-.15-6.07-.37-11.53-.68-18.56-.95-21.55-4.43-36.37-9.42-49.21-5.15-13.62-13.07-25.82-23.45-35.97z" fill="#6c5fea"/><g><path d="m191.941 24.947v105.59c0 9.64-7.81 17.44-17.44 17.44h-30.502l-18.28 26.35-18.28-26.35h-82.497c-9.64 0-17.44-7.8-17.44-17.44v-105.59c0-9.63 7.8-17.44 17.44-17.44h149.559c9.63 0 17.44 7.81 17.44 17.44z" fill="#4dd4f7"/><path d="m191.941 24.947v105.59c0 9.64-7.81 17.44-17.44 17.44h-20c9.63 0 17.44-7.8 17.44-17.44v-105.59c0-9.63-7.81-17.44-17.44-17.44h20c9.63 0 17.44 7.81 17.44 17.44z" fill="#00c2f3"/><path d="m128.463 53.572c-6.797-6.798-17.826-6.789-24.634.018l-4.109 4.109-4.109-4.109c-6.808-6.808-17.837-6.816-24.634-.018-6.797 6.797-6.789 17.826.018 24.634l28.724 28.724 28.724-28.724c6.81-6.808 6.818-17.837.02-24.634z" fill="#fff"/></g><g><path d="m504.5 415.42v73.65c0 8.52-6.9 15.43-15.41 15.43h-146.039c-8.52 0-15.42-6.91-15.42-15.43v-120.69l41.59 31.62h119.869c8.51 0 15.41 6.9 15.41 15.42z" fill="#d9f0f4"/><path d="m504.5 415.42v73.65c0 8.52-6.9 15.43-15.41 15.43h-20c8.51 0 15.41-6.91 15.41-15.43v-73.65c0-8.52-6.9-15.42-15.41-15.42h20c8.51 0 15.41 6.9 15.41 15.42z" fill="#bae1e5"/></g><ellipse cx="255.973" cy="255.904" fill="#fff" rx="97.351" ry="97.392"/><ellipse cx="372.798" cy="144.558" fill="#fff" rx="19.999" ry="20.008"/><path d="m255.973 323.284c-37.137 0-67.351-30.227-67.351-67.38s30.214-67.38 67.351-67.38 67.351 30.227 67.351 67.38-30.214 67.38-67.351 67.38z" fill="#56788b"/></g><g><path d="m226.465 68.37h.028c7.974-.029 17.64-.041 29.719-.041 52.586 0 59.462.231 80.137 1.213 17.78.784 31.642 3.427 45.005 8.595 11.862 4.465 22.864 11.632 31.816 20.727.034.034.068.068.103.102 9.188 8.979 16.181 19.708 20.809 31.955 5.135 13.208 7.775 27.07 8.563 44.945.178 4.025 3.497 7.169 7.487 7.169.111 0 .224-.002.336-.007 4.139-.183 7.345-3.685 7.163-7.823-.864-19.583-3.815-34.917-9.544-49.652-5.372-14.218-13.54-26.755-24.277-37.263-10.459-10.609-23.311-18.973-37.108-24.167-14.887-5.757-30.213-8.708-49.667-9.565-20.937-.994-27.894-1.229-80.822-1.229-12.101 0-21.786.012-29.773.041-4.143.015-7.488 3.385-7.473 7.527.014 4.133 3.369 7.473 7.498 7.473z"/><path d="m438.134 367.868c-1.031 4.012 1.386 8.1 5.397 9.131.626.161 1.254.238 1.871.238 3.342 0 6.39-2.25 7.259-5.635 2.662-10.359 4.238-21.781 4.818-34.921.93-21.198 1.149-28.202 1.149-80.737 0-23.194-.016-36.843-.1-47.071-.034-4.142-3.435-7.51-7.562-7.438-4.143.034-7.473 3.419-7.438 7.562.084 10.176.1 23.794.1 46.947 0 52.219-.217 59.148-1.136 80.078-.532 12.087-1.958 22.504-4.358 31.846z"/><path d="m295.644 443.389h-.053c-9.097.063-21.265.091-39.454.091-52.295 0-59.208-.217-80.06-1.136-17.78-.784-31.643-3.428-45.008-8.595-11.863-4.466-22.865-11.633-31.816-20.727l-.082-.082c-9.24-9.101-16.239-19.836-20.826-31.975-5.137-13.214-7.779-27.076-8.566-44.943-.919-20.932-1.136-27.861-1.136-80.08 0-46.459.186-57.268.873-72.79.183-4.138-3.023-7.641-7.162-7.824-4.094-.186-7.64 3.023-7.823 7.161-.698 15.783-.888 26.704-.888 73.453 0 52.536.22 59.54 1.149 80.739.863 19.577 3.815 34.911 9.547 49.652 5.326 14.097 13.49 26.63 24.267 37.254 10.459 10.612 23.313 18.979 37.116 24.175 14.89 5.756 30.216 8.707 49.695 9.565 21.118.931 28.106 1.151 80.72 1.151 18.226 0 30.425-.028 39.558-.091 4.142-.029 7.477-3.41 7.448-7.552-.029-4.123-3.381-7.446-7.499-7.446z"/><path d="m169.192 211.086c-3.812-1.61-8.214.172-9.828 3.988-5.469 12.938-8.242 26.674-8.242 40.83 0 57.837 47.036 104.892 104.851 104.892s104.851-47.054 104.851-104.892-47.036-104.892-104.851-104.892c-30.084 0-58.758 12.956-78.669 35.546-2.739 3.107-2.44 7.847.667 10.585s7.848 2.44 10.585-.667c17.065-19.361 41.638-30.465 67.417-30.465 49.544 0 89.851 40.325 89.851 89.892s-40.307 89.892-89.851 89.892-89.851-40.325-89.851-89.892c0-12.138 2.375-23.91 7.059-34.989 1.612-3.814-.173-8.215-3.989-9.828z"/><path d="m255.973 330.784c41.273 0 74.852-33.591 74.852-74.88s-33.578-74.88-74.852-74.88c-41.272 0-74.851 33.591-74.851 74.88s33.578 74.88 74.851 74.88zm0-134.76c33.002 0 59.852 26.862 59.852 59.88s-26.85 59.88-59.852 59.88-59.851-26.862-59.851-59.88 26.849-59.88 59.851-59.88z"/><path d="m400.298 144.558c0-15.168-12.336-27.508-27.499-27.508s-27.5 12.34-27.5 27.508 12.337 27.508 27.5 27.508 27.499-12.34 27.499-27.508zm-39.999 0c0-6.897 5.607-12.508 12.5-12.508 6.892 0 12.499 5.611 12.499 12.508s-5.607 12.508-12.499 12.508c-6.893-.001-12.5-5.611-12.5-12.508z"/><path d="m489.082 392.485h-117.335l-39.573-30.098c-2.268-1.726-5.32-2.015-7.871-.75-2.554 1.266-4.169 3.869-4.169 6.719v120.708c0 12.646 10.28 22.935 22.917 22.935h16.233c4.143 0 7.5-3.358 7.5-7.5s-3.357-7.5-7.5-7.5h-16.233c-4.365 0-7.917-3.56-7.917-7.935v-105.58l29.545 22.471c1.305.993 2.9 1.53 4.54 1.53h119.863c4.366 0 7.918 3.56 7.918 7.935v73.646c0 4.375-3.552 7.935-7.918 7.935h-95.304c-4.143 0-7.5 3.358-7.5 7.5s3.357 7.5 7.5 7.5h95.304c12.637-.001 22.918-10.29 22.918-22.936v-73.645c0-12.646-10.281-22.935-22.918-22.935z"/><path d="m368.444 477.057h99.94c4.143 0 7.5-3.358 7.5-7.5s-3.357-7.5-7.5-7.5h-99.94c-4.143 0-7.5 3.358-7.5 7.5s3.358 7.5 7.5 7.5z"/><path d="m368.444 443.044h89.948c4.143 0 7.5-3.358 7.5-7.5s-3.357-7.5-7.5-7.5h-89.948c-4.143 0-7.5 3.358-7.5 7.5s3.358 7.5 7.5 7.5z"/><path d="m119.557 178.657c1.401 2.021 3.704 3.226 6.163 3.226s4.762-1.205 6.163-3.226l16.042-23.129h26.577c13.751 0 24.938-11.191 24.938-24.946v-105.635c0-13.756-11.187-24.947-24.938-24.947h-95.106c-4.143 0-7.5 3.358-7.5 7.5s3.357 7.5 7.5 7.5h95.105c5.48 0 9.938 4.462 9.938 9.947v105.635c0 5.484-4.458 9.946-9.938 9.946h-30.503c-2.459 0-4.762 1.205-6.163 3.226l-12.116 17.469-12.117-17.469c-1.401-2.021-3.704-3.226-6.163-3.226h-82.5c-5.48 0-9.939-4.462-9.939-9.946v-105.635c0-5.485 4.459-9.947 9.939-9.947h19.913c4.143 0 7.5-3.358 7.5-7.5s-3.357-7.5-7.499-7.5h-19.914c-13.751 0-24.939 11.191-24.939 24.947v105.635c0 13.755 11.188 24.946 24.939 24.946h78.574z"/><path d="m94.416 112.264c1.407 1.407 3.315 2.198 5.305 2.198s3.897-.791 5.305-2.198l28.723-28.736c9.72-9.723 9.728-25.535.018-35.248-4.7-4.703-10.951-7.292-17.603-7.292h-.02c-6.104.004-11.876 2.19-16.423 6.188-4.547-3.998-10.317-6.184-16.424-6.188h-.019c-6.651 0-12.902 2.589-17.604 7.292-9.708 9.713-9.7 25.525.019 35.248zm-18.133-53.379c1.867-1.869 4.352-2.897 6.995-2.897h.008c2.65.002 5.145 1.037 7.021 2.915l4.108 4.11c1.407 1.407 3.314 2.198 5.305 2.198s3.897-.791 5.305-2.198l4.108-4.11c1.877-1.878 4.37-2.913 7.021-2.915h.007c2.644 0 5.128 1.028 6.995 2.896 0 0 0 0 .001.001 3.863 3.865 3.855 10.162-.02 14.038l-23.416 23.43-23.419-23.429c-3.874-3.875-3.883-10.174-.019-14.039z"/></g>
</symbol>
<symbol id="loupe" viewBox="0 0 513.28 513.28">
<g>
	<g>
		<path d="M495.04,404.48L410.56,320c15.36-30.72,25.6-66.56,25.6-102.4C436.16,97.28,338.88,0,218.56,0S0.96,97.28,0.96,217.6
			s97.28,217.6,217.6,217.6c35.84,0,71.68-10.24,102.4-25.6l84.48,84.48c25.6,25.6,64,25.6,89.6,0
			C518.08,468.48,518.08,430.08,495.04,404.48z M218.56,384c-92.16,0-166.4-74.24-166.4-166.4S126.4,51.2,218.56,51.2
			s166.4,74.24,166.4,166.4S310.72,384,218.56,384z"/>
	</g>
</g>
<g>
</g>
<g>
</g>
<g>
</g>
<g>
</g>
<g>
</g>
<g>
</g>
<g>
</g>
<g>
</g>
<g>
</g>
<g>
</g>
<g>
</g>
<g>
</g>
<g>
</g>
<g>
</g>
<g>
</g>

</symbol>
<symbol id="love" viewBox="0 0 511.999 511.999">
<path style="fill:#EC5569;" d="M412.41,0H99.589C47.531,0,5.332,42.201,5.332,94.257v205.172c0,52.057,42.201,94.257,94.257,94.257
	h44.894c2.136,0,3.867,1.731,3.867,3.867v101.207c0,11.966,14.637,17.768,22.834,9.05l106.188-112.906
	c0.731-0.778,1.751-1.218,2.818-1.218h132.22c52.057,0,94.257-42.201,94.257-94.257V94.257C506.667,42.201,464.466,0,412.41,0z"/>
<path style="fill:#E63950;" d="M188.005,358.509c0-2.249-1.676-4.072-3.744-4.072h-43.462c-50.396,0-91.25-44.439-91.25-99.257
	V39.123c0-9.276,1.174-18.253,3.361-26.77C24.489,28.587,5.332,59.184,5.332,94.257v205.172c0,52.056,42.201,94.257,94.257,94.257
	h44.894c2.136,0,3.867,1.732,3.867,3.867v101.207c0,11.966,14.637,17.768,22.834,9.05l16.82-17.885V358.509H188.005z"/>
<path style="fill:#EC5569;" d="M361.908,122.325L361.908,122.325c-23.931-23.931-62.731-23.931-86.663,0l-13.518,13.518
	c-3.223,3.223-8.45,3.223-11.673,0l-13.302-13.302c-23.931-23.931-62.731-23.931-86.663,0l0,0
	c-23.931,23.931-23.931,62.731,0,86.663l99.973,99.973c3.223,3.223,8.45,3.223,11.673,0l100.172-100.189
	C385.839,185.056,385.839,146.257,361.908,122.325z"/>
<path style="fill:#FFF5F5;" d="M361.908,122.325L361.908,122.325c-23.931-23.931-62.731-23.931-86.663,0l-13.518,13.518
	c-3.223,3.223-8.45,3.223-11.673,0l-13.302-13.302c-23.931-23.931-62.731-23.931-86.663,0l0,0
	c-23.931,23.931-23.931,62.731,0,86.663l99.973,99.973c3.223,3.223,8.45,3.223,11.673,0l100.172-100.189
	C385.839,185.056,385.839,146.257,361.908,122.325z"/>
<path style="fill:#DCE6EB;" d="M182.145,209.204c-23.931-23.931-23.931-62.731,0-86.663l0,0c7.85-7.85,17.304-13.108,27.303-15.807
	c-20.486-5.532-43.278-0.274-59.358,15.807l0,0c-23.931,23.931-23.931,62.731,0,86.663l99.973,99.973
	c3.223,3.223,8.45,3.223,11.673,0l10.19-10.192L182.145,209.204z"/>
<g>
</g>
<g>
</g>
<g>
</g>
<g>
</g>
<g>
</g>
<g>
</g>
<g>
</g>
<g>
</g>
<g>
</g>
<g>
</g>
<g>
</g>
<g>
</g>
<g>
</g>
<g>
</g>
<g>
</g>

</symbol>
<symbol id="messages" viewBox="0 0 512 512"><g><path d="m108.874 358v154h23.721l73.531-70 26.748-82-26.748-104.91z" fill="#fc6"/><path d="m383.874 67-177.748 188.09v186.91h296.748v-375z" fill="#ffa64d"/><path d="m9.126 0v445h23.721l76.027-70h97.252l32-200-32-175z" fill="#ffea80"/><path d="m206.126 0h197v375h-197z" fill="#fc6"/><path d="m200.236 163.333h-36.69l-19.35-27.51-19.38 27.51h-36.69l37.74-53.57-37.59-53.43h36.68l19.26 27.37 19.28-27.37h36.71l-37.65 53.44z" fill="#b3ccff"/><path d="m266.301 163.532c-29.647 0-53.766-24.119-53.766-53.766s24.119-53.766 53.766-53.766c29.646 0 53.766 24.119 53.766 53.766s-24.119 53.766-53.766 53.766zm0-77.532c-13.105 0-23.766 10.662-23.766 23.766s10.662 23.766 23.766 23.766 23.766-10.662 23.766-23.766-10.661-23.766-23.766-23.766z" fill="#80aaff"/><path d="m200.236 318.333h-36.69l-19.35-27.51-19.38 27.51h-36.69l37.74-53.57-37.59-53.43h36.68l19.26 27.37 19.28-27.37h36.71l-37.65 53.44z" fill="#b3ccff"/><path d="m266.301 318.532c-29.647 0-53.766-24.119-53.766-53.766s24.119-53.766 53.766-53.766c29.646 0 53.766 24.119 53.766 53.766s-24.119 53.766-53.766 53.766zm0-77.532c-13.105 0-23.766 10.662-23.766 23.766s10.662 23.766 23.766 23.766 23.766-10.662 23.766-23.766-10.661-23.766-23.766-23.766z" fill="#80aaff"/></g>
</symbol>
<symbol id="vk" viewBox="0 0 512 512">
<path style="fill:#2D82C8;" d="M446,502H66c-30.928,0-56-25.072-56-56V66c0-30.928,25.072-56,56-56h380c30.928,0,56,25.072,56,56
	v380C502,476.928,476.928,502,446,502z"/>
<path style="fill:#FFFFFF;" d="M94.397,163h43.393c6.754,0,12.723,4.371,14.765,10.81c4.356,13.733,12.998,38.213,25.111,59.524
	c9.837,17.306,21.765,31.824,30.56,41.433c4.41,4.818,12.44,1.682,12.44-4.85v-62.622c0-9.187-2.882-18.143-8.24-25.605
	l-4.246-5.914c-0.985-1.372-1.514-3.018-1.514-4.706l0,0c0-4.457,3.613-8.07,8.07-8.07h60.68c5.477,0,9.917,4.44,9.917,9.917v80.28
	c0,5.211,5.39,8.676,10.131,6.512l4.127-1.884c0.71-0.324,1.351-0.783,1.886-1.352l0,0c20.861-22.151,37.773-47.713,50.001-75.575
	l4.538-10.34c2.015-4.591,6.556-7.553,11.57-7.548l42.844,0.05c8.037,0.009,13.166,8.578,9.378,15.666l-19.794,37.037
	c-2.56,4.791-5.409,9.422-8.529,13.868l-23.164,33.008c-4.112,5.86-3.319,13.846,1.865,18.783l16.964,16.154
	c13.129,12.502,24.572,26.663,34.038,42.124l5.075,8.289c4.738,7.739-0.831,17.678-9.905,17.678h-36.989
	c-7.482,0-14.646-3.026-19.862-8.39l-36.986-38.031c-7.326-7.533-16.701-12.749-26.964-15.002l0,0
	c-5.252-1.153-10.224,2.846-10.224,8.223v37.366c0,8.745-7.089,15.833-15.833,15.833l0,0c-31.024,0-61.185-10.212-85.827-29.06l0,0
	c-43.658-33.392-75.312-80.039-90.217-132.943l-8.094-28.731C83.674,168.943,88.175,163,94.397,163z"/>
<path d="M416.358,375.667h-36.989c-10.122,0-19.974-4.162-27.03-11.417l-36.986-38.03c-5.518-5.674-12.405-9.707-20.02-11.74v35.354
	c0,14.244-11.589,25.833-25.833,25.833c-33.029,0-65.667-11.051-91.902-31.117c-9.924-7.59-19.389-15.96-28.132-24.878
	c-3.866-3.943-3.804-10.275,0.14-14.142c3.945-3.867,10.276-3.802,14.142,0.14c8.081,8.242,16.829,15.979,26.001,22.994
	c22.767,17.413,51.09,27.003,79.752,27.003c3.217,0,5.833-2.617,5.833-5.833v-37.366c0-5.607,2.506-10.838,6.876-14.353
	c4.37-3.515,10.02-4.84,15.493-3.637c12.211,2.68,23.272,8.835,31.988,17.797l36.986,38.03c3.313,3.407,7.939,5.361,12.692,5.361
	h36.989c0.233,0,0.945,0,1.407-0.825s0.091-1.432-0.031-1.631l-5.074-8.289c-9.009-14.713-19.912-28.207-32.406-40.104
	l-16.964-16.154c-8.839-8.417-10.166-21.778-3.154-31.77l23.164-33.008c2.878-4.102,5.535-8.421,7.896-12.838l19.794-37.036
	c0.068-0.129,0.173-0.323-0.016-0.638c-0.188-0.314-0.409-0.315-0.555-0.315l-42.845-0.049h-0.003c-1.039,0-1.98,0.614-2.397,1.566
	l-4.538,10.34c-12.722,28.985-30.176,55.367-51.878,78.413c-1.431,1.519-3.118,2.728-5.018,3.594l-4.123,1.882
	c-5.338,2.437-11.469,1.998-16.403-1.175c-4.935-3.172-7.881-8.567-7.881-14.434V173h-56.835l2.053,2.858
	c6.617,9.217,10.116,20.088,10.116,31.437v62.622c0,7.137-4.3,13.42-10.954,16.005c-6.646,2.584-14.05,0.853-18.862-4.404
	c-8.784-9.596-21.443-24.888-31.877-43.244c-12.717-22.371-21.717-48.098-25.95-61.441c-0.727-2.293-2.83-3.833-5.233-3.833H95.206
	l7.875,27.951c4.586,16.277,10.889,32.123,18.734,47.098c2.563,4.892,0.676,10.936-4.217,13.499
	c-4.894,2.563-10.936,0.674-13.498-4.217c-8.489-16.202-15.309-33.346-20.27-50.957l-8.095-28.73
	c-1.661-5.897-0.492-12.079,3.205-16.962C82.64,155.8,88.272,153,94.396,153h43.394c11.159,0,20.923,7.148,24.298,17.786
	c3.995,12.595,12.461,36.826,24.272,57.606c7.713,13.569,16.824,25.371,24.307,34.062v-55.159c0-7.138-2.2-13.975-6.363-19.772
	l-4.246-5.915c-2.218-3.088-3.391-6.733-3.391-10.538c0-9.964,8.105-18.07,18.069-18.07h60.681c10.981,0,19.916,8.935,19.916,19.917
	v75.487c19.606-21.09,35.41-45.144,46.988-71.525l4.538-10.34c3.607-8.22,11.736-13.529,20.712-13.529c0.009,0,0.017,0,0.026,0
	l42.845,0.049c7.318,0.008,13.933,3.763,17.691,10.042c3.76,6.28,3.944,13.883,0.494,20.337l-19.794,37.037
	c-2.74,5.126-5.822,10.139-9.163,14.899l-23.164,33.008c-1.279,1.823-1.037,4.261,0.575,5.797l16.965,16.154
	c13.752,13.096,25.754,27.948,35.67,44.145l5.074,8.289c4.079,6.662,4.241,15.035,0.423,21.85
	C431.396,371.433,424.171,375.667,416.358,375.667z"/>
<path d="M131.938,293.381c-3.114,0-6.183-1.45-8.136-4.174l8.127-5.827l-8.17,5.768c-0.004-0.006-0.064-0.089-0.068-0.096
	c-3.218-4.488-2.188-10.735,2.3-13.954c4.489-3.219,10.735-2.188,13.954,2.3l0.111,0.155c3.218,4.488,2.188,10.735-2.3,13.954
	C135.991,292.772,133.954,293.381,131.938,293.381z"/>
<path d="M204.864,464h-81.5c-5.522,0-10-4.477-10-10s4.478-10,10-10h81.5c5.522,0,10,4.477,10,10S210.387,464,204.864,464z"/>
<path d="M250.364,464h-0.119c-5.522,0-10-4.477-10-10s4.478-10,10-10h0.119c5.522,0,10,4.477,10,10S255.887,464,250.364,464z"/>
<path d="M446,512H66c-36.393,0-66-29.607-66-66V66C0,29.607,29.607,0,66,0h380c36.393,0,66,29.607,66,66v380
	C512,482.393,482.393,512,446,512z M66,20c-25.364,0-46,20.636-46,46v380c0,25.364,20.636,46,46,46h380c25.364,0,46-20.636,46-46V66
	c0-25.364-20.636-46-46-46H66z"/>
<g>
</g>
<g>
</g>
<g>
</g>
<g>
</g>
<g>
</g>
<g>
</g>
<g>
</g>
<g>
</g>
<g>
</g>
<g>
</g>
<g>
</g>
<g>
</g>
<g>
</g>
<g>
</g>
<g>
</g>

</symbol></svg>